<svg xmlns="http://www.w3.org/2000/svg" width="649.1" height="147.7" viewBox="0 0 649.1 147.7"><title>Asset 1</title><path d="M622.7 126.6V92.7s5.5-2.3 9.6-2.3c6.1 0 7.1 5.4 7.1 13.3v22.9h9.7v-23c0-14.1-3.3-21.9-15-21.9-4.9 0-11.4 3.3-11.4 3.3v-2.3h-9.6v43.9zm-48.8-25.2c0-7.5 2.7-11.5 8.9-11.5s8.6 3.8 8.6 11.5zm9.6 17.8c-7 0-9.5-4.4-9.6-10.5h26.4l.6-6.9c0-12.8-5.9-20-18.1-20s-18.6 8.4-18.6 23.3 5 22.5 18.6 22.5a81.4 81.4 0 0 0 16.7-2l-.2-7.2s-9.5.8-15.8.8M534 104.5c-4.9 0-7.4-2.6-7.4-7.4s2.5-7.4 7.5-7.4 7.8 2.4 7.8 7.4-2.9 7.4-7.9 7.4m3.5 23c6.1 0 9.1.8 9.1 5.3s-3.7 6.4-10.2 6.4-10.4-1.8-10.4-5.8 1.2-4.4 3.4-6.4c0 0 5.3.5 8.1.5m-1.2 20.1c10.9 0 20-4.6 20-15.4s-5.3-12.8-18-12.8c-8.3 0-8.9-.6-8.9-3.4a18.3 18.3 0 0 1 1.1-4l3.5.4c10.8 0 17.5-4.1 17.5-15.2a10.5 10.5 0 0 0-2.2-6.8h6.7v-7.8l-13.5.3a45 45 0 0 0-8.3-1.1c-9.2 0-17.1 4.8-17.1 15.4 0 7.1 3.1 10.8 6.4 12.9 0 0-3.3 5.2-3.3 7.2a7.4 7.4 0 0 0 2.8 6.2c-4.2 3.3-6.5 6.4-6.5 10.8 0 9.9 7.9 13.4 19.8 13.4M480 101.3c0-7.5 2.7-11.5 8.9-11.5s8.6 3.8 8.6 11.5zm9.6 17.8c-7 0-9.5-4.4-9.6-10.5h26.4l.6-6.9c0-12.8-5.9-20-18.1-20s-18.6 8.4-18.6 23.3 5 22.5 18.6 22.5a81.4 81.4 0 0 0 16.7-2l-.2-7.2s-9.5.8-15.8.8m-27.6-28v-8.3h-11.6V69.9h-9.6v12.9h-5.3v8.4h5.3v20c0 11.8 3.8 16.4 13.1 16.4a52.8 52.8 0 0 0 8.4-1.1l-.4-7.8-6.6.3c-3.6 0-4.8-2.7-4.8-9.1V91.1zm-46.5 15.3v11.2a36.9 36.9 0 0 1-10.2 1.8c-3.1 0-5-2.5-5-6.2s1.8-6 5.7-6.2zm9.7-9.9c0-10.7-5.2-14.8-14.5-14.8-6.6 0-17.9 1.8-17.9 1.8l.4 7.9s9.1-.9 17-.9c3.5 0 5.4 1.9 5.4 5.8v3l-10.6.9c-8.7.7-14.2 4.4-14.2 13.4s5.7 14 13.3 14a33.5 33.5 0 0 0 13.2-3.2c2.6 2 5.5 3.2 11.6 3.2l.6-8.1c-2.6-.6-3.9-1.4-4.1-4.5zm-65.3 30.1h9.7V96.3a43.2 43.2 0 0 1 12.9-4.4V81.6a34 34 0 0 0-12.9 5.9v-4.8h-9.7zm-10.7-35.5v-8.3h-11.6V69.9H328v12.9h-5.3v8.4h5.3v20c0 11.8 3.8 16.4 13.1 16.4a52.6 52.6 0 0 0 8.3-1.1l-.4-7.8-6.6.3c-3.6 0-4.8-2.7-4.8-9.1V91.1zm-36.5-7.5s-9.7-1.9-16.2-1.9c-8 0-16.1 3.8-16.1 13.6s5.8 11.3 15.7 13.3c6.9 1.4 8.4 2.2 8.4 5.2s-2.4 5.4-8.4 5.4-14.9-1.5-14.9-1.5l-.3 7.9s10 1.9 16.2 1.9c10 0 17.1-3.7 17.1-14 0-8.7-4.1-11.5-15.1-13.5-7.1-1.2-8.9-2.2-8.9-4.9s2.5-5.1 7.1-5.1 15.3 1.4 15.3 1.4zm99.1-62.4h20.6l-20.6 27v8.5h31.7v-8.5H423l20.6-26.9v-8.6h-31.8zm-9.9 0v-8.3h-11.6V0h-9.6v12.9h-5.3v8.4h5.3v20c0 11.8 3.8 16.4 13.1 16.4a52.6 52.6 0 0 0 8.4-1.1l-.4-7.8-6.6.3c-3.6 0-4.8-2.7-4.8-9.1V21.3zm-61.7 10.3c0-7.5 2.7-11.5 8.9-11.5s8.6 3.8 8.6 11.5zm9.6 17.8c-7 0-9.5-4.4-9.6-10.5h26.4l.6-6.9c0-12.8-5.9-20.1-18.1-20.1s-18.6 8.4-18.6 23.3 5 22.5 18.6 22.5a81.6 81.6 0 0 0 16.7-2l-.2-7.2s-9.5.8-15.8.8m-57.4 7.5V22.9s5.5-2.3 9.6-2.3c6.1 0 7.1 5.4 7.1 13.3v22.8h9.7V33.8c0-14.1-3.3-21.9-14.9-21.9-4.9 0-11.4 3.3-11.4 3.3v-2.4h-9.6v43.9zm-41.3 3a58.6 58.6 0 0 0-115.5 0h30.8a28.7 28.7 0 0 1 54 0zM135.6 79.2a58.6 58.6 0 0 0 115.5 0h-30.7a28.7 28.7 0 0 1-54 0zm-66.5 47.6a58.6 58.6 0 0 0 0-115.3v31a28.7 28.7 0 0 1 0 53.5zM48.2 11.6a58.6 58.6 0 0 0 0 115.3v-31a28.7 28.7 0 0 1 0-53.5z"/></svg>
