<?xml version="1.0" standalone="no"?>
<!DOCTYPE svg PUBLIC "-//W3C//DTD SVG 1.1//EN" "http://www.w3.org/Graphics/SVG/1.1/DTD/svg11.dtd">
<svg xmlns="http://www.w3.org/2000/svg">
<metadata>Copyright (C) 2016 by original authors @ fontello.com</metadata>
<defs>
<font id="icons" horiz-adv-x="1000" >
<font-face font-family="icons" font-weight="400" font-stretch="normal" units-per-em="1000" ascent="850" descent="-150" />
<missing-glyph horiz-adv-x="1000" />
<glyph glyph-name="facebook" unicode="&#xe800;" d="M0 483h90v85c0 40 0 95 30 130 30 40 70 65 135 65 110 0 160-15 160-15l-25-130c0 0-35 10-70 10-35 0-65-10-65-45v-100h140l-10-125h-130v-440h-165v440h-90l0 125 0 0z" horiz-adv-x="415" />

<glyph glyph-name="twitter" unicode="&#xe801;" d="M860 611c-30-15-65-25-100-30 35 20 65 55 80 100-35-20-70-35-110-45-30 35-80 55-130 55-100 0-175-80-175-175 0-15 0-25 5-40-155 10-285 80-370 185-15-25-25-55-25-85 0-60 30-115 80-145-30-5-55 5-80 20l0 0c0-85 60-155 140-175-15-5-30-5-45-5-10 0-20 0-35 5 25-75 90-125 165-130-60-45-135-75-220-75-15 0-30 0-40 0 80-50 170-80 270-80 325 0 505 270 505 505 0 10 0 15 0 25 35 25 65 55 85 90" horiz-adv-x="860" />

<glyph glyph-name="google-plus" unicode="&#xe802;" d="M275-42c-100 0-175 65-175 140s90 140 190 135c25 0 45-5 65-10 55-40 95-60 105-105 0-10 5-20 5-25 0-75-50-135-190-135m25 450c-65 5-130 80-145 165-10 90 35 155 100 155 70 0 130-75 145-165 15-85-30-155-100-155m140-130c-25 15-70 60-70 80 0 30 10 40 50 75 45 35 75 80 75 140 0 65-30 130-85 150h85l60 45h-265c-120 0-230-90-230-195s80-190 200-190c10 0 15 0 25 0-10-15-15-30-15-50 0-30 15-55 35-75-15 0-30 0-45 0-145 0-260-95-260-190s125-155 270-155c165 0 260 95 260 190 5 80-20 125-90 175m385 125h-105v100h-85v-105h-105v-85h105v-105h85v105h105v90z" horiz-adv-x="825" />

<glyph glyph-name="icon-youtube" unicode="&#xe803;" d="M700 490c0 0-5 50-30 70-25 30-55 30-70 30-100 5-245 5-245 5h0c0 0-145 0-245-5-15 0-45 0-70-30-20-20-25-70-25-70s-10-55-10-115v-55c0-55 5-115 5-115s5-50 30-70c25-30 60-25 75-30 55-5 240-5 240-5s145 0 245 5c15 0 45 0 70 30 20 20 30 70 30 70s5 55 5 115v55c0 60-5 115-5 115z m-415-230l0 195 190-100-190-95z" horiz-adv-x="710" />

<glyph glyph-name="gallery" unicode="&#xe804;" d="M480 120c-100 0-180 80-180 180s80 180 180 180 180-80 180-180-80-180-180-180z m360 480h-180c0 35-25 60-60 60h-240c-35 0-60-25-60-60h-180c-65 0-120-50-120-120v-360c0-65 55-120 120-120h720c65 0 120 55 120 120v360c0 70-55 120-120 120z" horiz-adv-x="960" />

<glyph glyph-name="video" unicode="&#xe805;" d="M737 188l210-165v600l-210-165c0 0 0-270 0-270z m-737 350v-430c0-85 85-85 85-85h517c0 0 85 0 85 85v430c0 85-85 85-85 85h-517c0 0-85 0-85-85z" horiz-adv-x="947" />

<glyph glyph-name="play" unicode="&#xe806;" d="M600 300l-600-300v600l600-300z" horiz-adv-x="600" />

<glyph glyph-name="search" unicode="&#xe807;" d="M595 35l-210 210c75 85 70 215-10 295-40 40-95 65-155 65s-115-25-155-65c-40-40-65-95-65-155s25-115 65-155c40-40 95-65 155-65 50 0 100 20 140 50l210-210c5-5 10-5 15-5 5 0 10 0 15 5 0 10 0 25-5 30z m-505 220c-35 35-55 80-55 130s20 95 55 130 80 55 130 55 95-20 130-55c70-70 70-185 0-260-35-35-80-55-130-55-50 5-95 20-130 55z" horiz-adv-x="600" />

<glyph glyph-name="login" unicode="&#xe808;" d="M283 275c80 0 145 70 145 160 0 90-65 160-145 160s-145-70-145-160 65-160 145-160z m0 280c60 0 105-50 105-120s-45-120-105-120-105 50-105 120 45 120 105 120z m235-360c-25 15-120 55-235 55-90 0-160-25-220-55-55-25-70-75-60-115 10-35 40-80 100-80h365c60 0 95 45 105 80 15 35 0 85-55 115z m-235 10c100 0 180-30 220-50 35-15 40-50 35-70-5-25-25-50-65-50h-365c-35 0-60 25-65 50-5 20 0 55 35 70 70 30 130 50 205 50z" horiz-adv-x="578" />

<glyph glyph-name="close" unicode="&#xe809;" d="M560 0l-275 270-270-270-25 20 275 275-275 270 25 25 270-275 275 275 20-25-270-270 270-275-20-20z" horiz-adv-x="580" />

<glyph glyph-name="angle-up" unicode="&#xe80a;" d="M0 166l300 315 300-315-20-20-280 290-280-290-20 20z" horiz-adv-x="600" />

<glyph glyph-name="angle-down" unicode="&#xe80b;" d="M600 434l-300-315-300 315 20 25 280-290 280 290 20-25z" horiz-adv-x="600" />

<glyph glyph-name="angle-left" unicode="&#xe80c;" d="M310 0l-310 305 310 295 25-20-290-275 290-280-25-25z" horiz-adv-x="335" />

<glyph glyph-name="angle-right" unicode="&#xe80d;" d="M20 600l315-300-315-300-20 25 290 275-290 280 20 20z" horiz-adv-x="335" />

<glyph glyph-name="arrow-left" unicode="&#xe80e;" d="M577 273h-493l196-196c9-9 9-24 0-33-10-9-25-9-34 0l-239 240c-9 9-9 24 0 33l239 239c9 9 24 9 34 0 4-5 6-11 6-17 0-6-2-12-6-16l-203-203h500c12 0 23-10 23-23 0-13-11-24-23-24z" horiz-adv-x="600" />

<glyph glyph-name="arrow-right" unicode="&#xe80f;" d="M24 327h492l-196 196c-9 9-9 24 0 33 10 9 25 9 34 0l239-239c9-10 9-24 0-34l-239-239c-9-9-24-9-34 0-4 5-6 11-6 17 0 6 2 12 7 16l202 203h-499c-13 0-24 10-24 23 0 13 11 24 24 24z" horiz-adv-x="600" />

<glyph glyph-name="arrow-up" unicode="&#xe810;" d="M236 24v492l-196-195c-9-10-24-10-33 0-9 9-9 24 0 33l239 239c10 9 24 9 34 0l239-239c9-9 9-24 0-33-5-5-11-7-17-7-6 0-12 2-16 7l-203 202v-499c0-13-10-24-23-24-13 0-24 11-24 24z" horiz-adv-x="526" />

<glyph glyph-name="arrow-down" unicode="&#xe811;" d="M290 576v-492l196 196c9 9 24 9 33 0 9-10 9-24 0-34l-239-239c-10-9-25-9-34 0l-239 239c-9 9-9 24 0 34 5 4 11 6 17 6 6 0 12-2 16-6l203-203v499c0 13 10 24 23 24 13 0 24-11 24-24z" horiz-adv-x="526" />

<glyph glyph-name="power" unicode="&#xe812;" d="M339 75q95 0 164 69t70 166q0 97-69 166-15 15-15 36t15 36 37 15 37-15q100-100 100-238 0-140-100-240-99-99-239-99-141 0-240 99t-99 240q0 140 99 238 15 15 37 15t37-15 15-36-15-36q-69-69-69-166 0-97 69-166t166-69z m0 291q-21 0-37 15t-16 36l0 261q0 22 16 37t37 15 36-15 15-37l0-261q0-21-15-36t-36-15z" horiz-adv-x="678" />

<glyph glyph-name="substitution" unicode="&#xe815;" d="M300 587c-110 0-203-76-229-179h-71l103-143 103 143h-72c24 69 89 118 166 118 53 0 101-23 133-61l36 50c-43 44-103 72-169 72z m197-152l-103-143h72c-24-69-89-118-166-118-53 0-101 23-133 60l-36-49c43-44 103-71 169-71 110 0 203 76 229 178h71l-103 143z" horiz-adv-x="600" />

<glyph glyph-name="soccer-ball" unicode="&#xe816;" d="M560 499c-53 93-153 151-260 151-52 0-104-14-149-40-70-40-119-104-140-181-21-78-11-159 29-228 53-93 153-151 260-151 52 0 104 14 149 40 144 82 194 266 111 409z m-130-372c-17-8-44-20-66-23-23-3-48-2-63-1-38 21-60 53-66 62 7 11 20 33 29 49 11 19 20 39 24 49 61 8 103 21 114 25 7-5 21-16 40-35 19-19 29-32 34-39-7-37-37-76-46-87z m-305 399c13 15 35 30 51 41 12 2 60 9 101-7 4-10 10-27 14-44 5-20 8-45 9-55-48-42-70-76-76-85-9 0-39 3-59 4-15 1-42 1-57 1-20 49-21 79-21 91 8 14 23 36 38 54z m228 82c15-2 41-6 66-17 25-11 46-28 58-40 7-15 25-55 22-89l-85-48c-48 32-96 45-108 48-1 12-4 35-9 56-4 16-10 33-14 43 5 7 22 26 70 47z m197-347c-35-34-61-41-70-42-5 7-16 20-34 38-19 19-33 30-40 35 11 49 12 104 12 117l84 48c9-4 34-17 65-58 3-15 6-38 4-62-2-26-13-57-21-76z m-443 114c16 0 43 0 58-1 19-1 50-4 58-5 12-42 51-94 59-105-5-10-13-29-23-47-10-17-23-39-30-50-59-8-90 2-99 7-12 12-31 33-43 54-11 20-19 44-23 58 15 53 37 82 43 89z m449-115c8 19 19 50 21 76 2 25-1 47-3 62 2 5 4 14 4 25 18-66 11-136-18-197-1 12-3 26-4 34z m-52 293c-7 2-15 4-25 4-12 12-33 29-57 40-26 11-52 15-68 17-6 5-19 16-32 23 69-5 133-35 182-84z m-347 47c9 5 19 10 28 14-4-9-10-23-12-42-16-10-38-26-52-42-16-18-30-40-39-55-24-6-43-21-54-31 23 66 68 121 129 156z m-107-393c-19 33-31 70-36 107 12-11 35-24 45-29 3-15 11-39 23-60 12-22 31-43 43-55-2-23 2-41 5-52-32 24-59 54-80 89z m250-145c-18 0-36 2-53 5 23 6 44 22 53 30 8 0 18-1 30-1 11 0 23 1 35 2 23 3 50 15 67 23 14-6 24-8 31-8-6-5-13-9-20-13-43-25-93-38-143-38z" horiz-adv-x="600" />

<glyph glyph-name="instagram" unicode="&#xf16d;" d="M571 350q0 59-41 101t-101 42-101-42-42-101 42-101 101-42 101 42 41 101z m77 0q0-91-64-156t-155-64-156 64-64 156 64 156 156 64 155-64 64-156z m61 229q0-21-15-36t-37-15-36 15-15 36 15 36 36 15 37-15 15-36z m-280 123q-4 0-43 0t-59 0-54-2-57-5-40-11q-28-11-49-32t-33-49q-6-16-10-40t-6-58-1-53 0-59 0-43 0-43 0-59 1-53 6-58 10-40q12-28 33-49t49-32q16-6 40-11t57-5 54-2 59 0 43 0 42 0 59 0 54 2 58 5 39 11q28 11 50 32t32 49q6 16 10 40t6 58 1 53 0 59 0 43 0 43 0 59-1 53-6 58-10 40q-11 28-32 49t-50 32q-16 6-39 11t-58 5-54 2-59 0-42 0z m428-352q0-128-3-177-5-116-69-180t-179-69q-50-3-177-3t-177 3q-116 6-180 69t-69 180q-3 49-3 177t3 177q5 116 69 180t180 69q49 3 177 3t177-3q116-6 179-69t69-180q3-49 3-177z" horiz-adv-x="857.1" />
</font>
</defs>
</svg>
